<?xml version="1.0" standalone="no"?>
<!DOCTYPE svg PUBLIC "-//W3C//DTD SVG 20010904//EN"
 "http://www.w3.org/TR/2001/REC-SVG-20010904/DTD/svg10.dtd">
<svg version="1.0" xmlns="http://www.w3.org/2000/svg"
 width="400.000000pt" height="400.000000pt" viewBox="0 0 400.000000 400.000000"
 preserveAspectRatio="xMidYMid meet">
<metadata>
Created by potrace 1.11, written by Peter Selinger 2001-2013
</metadata>
<g transform="translate(0.000000,400.000000) scale(0.100000,-0.100000)"
fill="#000000" stroke="none">
<path d="M0 3253 l0 -748 35 80 c88 201 236 348 434 429 41 17 77 38 82 46 4
8 17 40 29 70 64 160 214 289 387 335 59 16 182 21 257 10 l41 -6 60 82 c134
183 338 332 575 420 l75 28 -987 1 -988 0 0 -747z"/>
<path d="M2730 3967 c183 -71 308 -151 449 -289 194 -192 316 -435 354 -708
l12 -85 75 -40 c101 -54 156 -93 210 -151 63 -68 108 -136 141 -213 l28 -66 1
793 0 792 -677 0 -678 -1 85 -32z"/>
<path d="M2206 3850 c-328 -40 -594 -205 -781 -485 -52 -77 -65 -91 -97 -99
-28 -7 -48 -5 -83 8 -102 39 -236 27 -325 -29 -105 -66 -161 -142 -191 -258
-10 -39 -26 -78 -36 -87 -10 -10 -56 -29 -103 -43 -165 -51 -289 -157 -370
-317 -124 -246 -59 -557 155 -733 139 -115 243 -147 478 -147 l159 0 29 -30
30 -29 -3 -475 -3 -475 -23 -23 c-20 -21 -34 -23 -131 -26 l-109 -4 -18 -40
c-27 -61 -95 -123 -162 -148 -46 -18 -72 -21 -134 -18 -65 4 -85 10 -133 39
-97 58 -145 144 -145 258 0 99 23 156 89 221 72 71 134 95 229 88 37 -3 87
-14 112 -25 56 -25 120 -89 145 -143 19 -42 47 -57 84 -45 21 6 21 11 21 345
0 299 -2 339 -16 344 -9 3 -64 6 -122 6 -164 0 -303 42 -435 132 -120 82 -199
178 -273 331 l-44 92 0 -1017 0 -1018 746 0 746 0 -50 55 c-60 66 -82 124 -82
219 0 118 67 225 169 271 l41 18 0 452 c0 404 -2 454 -16 459 -9 3 -91 6 -184
6 -93 0 -176 3 -185 6 -47 18 -55 112 -14 150 20 18 40 19 275 19 250 0 254 0
276 -23 l23 -23 5 -522 5 -522 43 -24 c107 -59 162 -151 162 -273 0 -95 -21
-149 -86 -218 l-47 -50 175 0 174 0 -51 53 c-63 65 -85 123 -85 221 0 116 57
209 165 269 l40 23 3 443 c1 319 -1 448 -9 457 -9 11 -51 14 -188 14 -171 0
-178 1 -198 22 -29 32 -37 65 -22 99 22 55 44 59 303 59 234 0 235 0 263 -24
l28 -24 5 -523 5 -524 43 -24 c61 -33 110 -85 138 -145 19 -40 24 -68 24 -131
0 -98 -21 -150 -88 -218 l-46 -47 747 0 747 0 0 988 -1 987 -24 -55 c-41 -95
-76 -151 -139 -217 -138 -148 -306 -223 -502 -223 -92 0 -102 2 -122 23 -32
34 -30 100 3 131 21 20 39 24 117 29 183 10 323 91 425 243 110 165 115 398
11 560 -72 113 -157 184 -273 228 -126 49 -135 58 -135 145 0 27 -7 86 -15
132 -56 320 -261 605 -546 758 -176 95 -411 143 -593 121z m-192 -789 c10 -16
-15 -114 -42 -164 -34 -63 -109 -132 -180 -165 -48 -22 -71 -26 -147 -26 -76
0 -99 4 -147 26 -71 33 -146 102 -180 165 -27 50 -52 148 -42 164 3 5 159 9
369 9 210 0 366 -4 369 -9z m864 -1 c-7 -22 -714 -859 -723 -856 -10 3 -20
828 -10 853 6 16 739 19 733 3z m-860 -762 l-3 -433 -362 -3 c-236 -1 -363 1
-363 8 0 8 136 174 587 713 68 81 128 147 134 147 6 0 8 -158 7 -432z m654
-100 c115 -53 207 -177 211 -284 l2 -49 -367 -3 -368 -2 0 40 c0 91 78 217
171 275 96 61 246 71 351 23z m391 -550 c47 -24 46 -21 47 -450 0 -402 0 -407
21 -413 37 -12 65 3 84 45 29 64 112 136 180 156 209 60 397 -81 397 -299 0
-57 -6 -80 -31 -132 -105 -214 -427 -221 -536 -12 l-29 55 -109 4 c-105 3
-110 4 -133 31 l-24 28 0 403 c0 359 -2 405 -16 410 -9 3 -94 6 -190 6 -161 0
-176 2 -194 20 -14 14 -20 33 -20 63 0 45 12 67 45 85 28 16 479 16 508 0z"/>
<path d="M3454 810 c-37 -15 -84 -78 -84 -113 0 -38 30 -91 61 -108 56 -29
135 -4 165 52 30 59 3 133 -60 163 -38 18 -51 19 -82 6z"/>
<path d="M463 799 c-78 -38 -94 -132 -32 -190 37 -35 68 -42 115 -26 46 15 84
66 84 114 0 26 -9 43 -37 72 -48 49 -77 56 -130 30z"/>
<path d="M1613 375 c-38 -16 -73 -68 -73 -108 0 -89 96 -145 176 -104 33 17
64 70 64 109 0 36 -37 88 -75 104 -42 17 -51 17 -92 -1z"/>
<path d="M2293 375 c-99 -43 -90 -177 15 -222 66 -28 152 37 152 114 0 41 -35
92 -75 109 -42 17 -51 17 -92 -1z"/>
</g>
</svg>
